<svg xmlns="http://www.w3.org/2000/svg" version="1.1" xmlns:xlink="http://www.w3.org/1999/xlink" width="847" height="97"><svg width="847" height="97" viewBox="0 0 847 97" fill="none" xmlns="http://www.w3.org/2000/svg">
<path d="M0.584 73V5.032H23.432C36.584 5.032 48.488 9.64 48.488 24.712C48.488 41.8 35.72 44.872 21.32 44.872H12.68V73H0.584ZM12.68 34.504H19.976C26.888 34.504 35.816 34.12 35.816 24.904C35.816 16.552 27.848 15.4 21.32 15.4H12.68V34.504ZM58.4075 73V26.92H69.9275V73H58.4075ZM56.7755 11.272C56.7755 7.62399 59.8475 4.36 64.0715 4.36C68.2955 4.36 71.5595 7.336 71.5595 11.272C71.5595 15.208 68.2955 18.184 64.0715 18.184C59.8475 18.184 56.7755 14.92 56.7755 11.272ZM83.153 73V26.92H94.097V34.312H94.289C96.401 29.704 100.721 25.768 108.401 25.768C120.785 25.768 125.201 34.504 125.201 43.912V73H113.681V49.672C113.681 44.584 113.297 36.136 105.233 36.136C97.649 36.136 94.673 41.704 94.673 47.848V73H83.153ZM149.798 0.423996V33.352H149.99C151.814 29.512 156.422 25.768 163.526 25.768C175.91 25.768 180.326 34.504 180.326 43.912V73H168.806V49.672C168.806 44.584 168.422 36.136 160.358 36.136C152.774 36.136 149.798 41.704 149.798 47.848V73H138.278V0.423996H149.798ZM237.755 53.992H202.619C203.387 60.808 208.571 64.936 215.003 64.936C220.763 64.936 224.507 62.248 227.387 58.696L235.643 64.936C230.267 71.56 223.451 74.152 216.155 74.152C202.235 74.152 191.099 64.456 191.099 49.96C191.099 35.464 202.235 25.768 216.155 25.768C229.019 25.768 237.755 34.792 237.755 50.824V53.992ZM202.619 45.352H226.235C226.139 38.632 221.723 34.408 214.523 34.408C207.707 34.408 203.483 38.728 202.619 45.352ZM248.72 73V26.92H260.24V73H248.72ZM247.088 11.272C247.088 7.62399 250.16 4.36 254.384 4.36C258.608 4.36 261.872 7.336 261.872 11.272C261.872 15.208 258.608 18.184 254.384 18.184C250.16 18.184 247.088 14.92 247.088 11.272ZM273.466 73V26.92H284.986V34.216H285.178C287.674 28.936 292.762 25.768 298.81 25.768C300.25 25.768 301.594 26.056 302.938 26.44V37.576C301.018 37.096 299.194 36.712 297.37 36.712C286.522 36.712 284.986 45.832 284.986 48.328V73H273.466ZM306.787 49.96C306.787 35.464 317.923 25.768 331.843 25.768C345.763 25.768 356.899 35.464 356.899 49.96C356.899 64.456 345.763 74.152 331.843 74.152C317.923 74.152 306.787 64.456 306.787 49.96ZM318.307 49.96C318.307 57.16 323.395 63.784 331.843 63.784C340.291 63.784 345.379 57.16 345.379 49.96C345.379 42.76 340.291 36.136 331.843 36.136C323.395 36.136 318.307 42.76 318.307 49.96ZM418.883 11.368V73H411.971V11.368H389.219V5.032H441.635V11.368H418.883ZM481.081 52.264H443.641C444.409 61.288 451.225 68.392 460.153 68.392C466.873 68.392 472.057 64.648 474.553 60.616L479.449 64.648C474.169 71.368 467.545 74.152 460.153 74.152C446.809 74.152 436.921 64.072 436.921 50.536C436.921 37 446.809 26.92 459.577 26.92C473.209 27.016 481.081 37.096 481.081 49.384V52.264ZM443.833 47.08H474.169C474.169 38.536 468.697 32.68 459.577 32.68C451.321 32.68 443.833 39.688 443.833 47.08ZM530.488 34.696L525.304 38.632C523.192 35.368 519.064 32.68 514.072 32.68C503.608 32.488 497.176 40.264 497.176 50.536C497.176 60.808 503.608 68.584 514.072 68.392C519.064 68.392 523.192 65.704 525.304 62.44L530.488 66.376C526.072 71.56 520.12 74.056 514.072 74.152C499.384 74.344 490.264 64.072 490.264 50.536C490.264 37 499.384 26.728 514.072 26.92C520.12 27.016 526.072 29.512 530.488 34.696ZM538.401 28.072H544.929C545.217 30.472 545.217 32.872 545.217 35.272H545.409C548.193 30.376 554.529 26.92 560.481 26.92C571.905 26.92 577.377 33.352 577.377 44.488V73H571.041V48.136C571.041 38.152 568.257 32.68 558.849 32.68C557.505 32.68 545.217 33.544 545.217 49.96V73H538.881V37.96C538.881 35.56 538.593 31.336 538.401 28.072ZM637.633 50.536C637.633 64.072 627.745 74.152 613.729 74.152C599.809 74.152 589.921 64.072 589.921 50.536C589.921 37 599.809 26.92 613.729 26.92C627.745 26.92 637.633 37 637.633 50.536ZM630.721 50.536C630.721 40.456 624.193 32.68 613.729 32.68C603.361 32.68 596.833 40.456 596.833 50.536C596.833 60.616 603.361 68.392 613.729 68.392C624.193 68.392 630.721 60.616 630.721 50.536ZM656.907 0.423996V73H650.571V0.423996H656.907ZM717.601 50.536C717.601 64.072 707.713 74.152 693.697 74.152C679.777 74.152 669.889 64.072 669.889 50.536C669.889 37 679.777 26.92 693.697 26.92C707.713 26.92 717.601 37 717.601 50.536ZM710.689 50.536C710.689 40.456 704.161 32.68 693.697 32.68C683.329 32.68 676.801 40.456 676.801 50.536C676.801 60.616 683.329 68.392 693.697 68.392C704.161 68.392 710.689 60.616 710.689 50.536ZM727.852 87.016L732.556 82.024C736.299 87.016 742.54 90.28 749.74 90.28C762.604 90.28 767.212 82.312 767.212 72.616V64.552H767.02C762.988 70.6 756.748 73 750.22 73C737.26 73 726.796 63.304 726.796 50.152C726.796 37.096 736.396 26.92 749.644 26.92C755.02 26.92 761.836 28.552 767.02 35.56H767.212V28.072H773.548V72.616C773.548 82.408 769.612 96.04 749.452 96.04C740.524 96.04 733.612 93.16 727.852 87.016ZM733.708 49.96C733.708 59.368 741.004 67.24 750.411 67.24C759.628 67.24 767.788 60.328 767.404 49.96C767.404 40.552 760.972 32.68 750.411 32.68C741.004 32.68 733.708 40.552 733.708 49.96ZM795.563 28.072V73H789.227V28.072H795.563ZM797.003 10.792C797.003 13.48 794.699 15.4 792.395 15.4C790.091 15.4 787.787 13.48 787.787 10.792C787.787 8.10399 790.091 6.184 792.395 6.184C794.699 6.184 797.003 8.10399 797.003 10.792ZM836.482 45.448H839.65V44.296C839.65 36.52 835.906 32.68 828.13 32.68C822.85 32.68 818.242 34.504 814.402 37.96L810.562 33.448C814.69 29.224 821.122 26.92 829.57 26.92C838.402 26.92 845.986 31.912 845.986 42.856V62.92C845.986 66.376 846.37 70.6 846.754 73H840.61C840.226 70.792 840.034 68.104 840.034 65.704H839.842C836.194 71.656 831.202 74.152 824.002 74.152C816.034 74.152 808.546 69.736 808.546 61C808.546 46.408 825.73 45.448 836.482 45.448ZM839.65 50.632H836.386C829.954 50.632 815.458 51.112 815.458 60.136C815.458 66.088 820.93 68.392 826.018 68.392C835.234 68.392 839.65 61.864 839.65 53.896V50.632Z" fill="#2EA1A5"></path>
</svg><style>@media (prefers-color-scheme: light) { :root { filter: none; } }
@media (prefers-color-scheme: dark) { :root { filter: none; } }
</style></svg>